inDegrees=no
num_controls=7
num_derivatives=13
num_iterations=223
num_multipliers=7
num_parameters=0
num_slacks=7
num_states=26
objective=6.443248
objective_accelerations=0.575201
objective_balance=0.080832
objective_effort=0.506395
objective_height=5.161007
objective_ligament=0.119812
solver_duration=1920.402010
status=Solve_Succeeded
success=true
DataType=double
version=3
OpenSimVersion=4.4-2022-07-23-0e9fedc
endheader
time	/jointset/ground_pelvis/pelvis_tilt/value	/jointset/ground_pelvis/pelvis_tx/value	/jointset/ground_pelvis/pelvis_ty/value	/jointset/hip_r/hip_flexion_r/value	/jointset/hip_r/hip_adduction_r/value	/jointset/hip_r/hip_rotation_r/value	/jointset/back/lumbar_extension/value	/jointset/patellofemoral_r/patellar_flexion_r/value	/jointset/knee_r/knee_flexion_r/value	/jointset/knee_r/knee_adduction_r/value	/jointset/knee_r/knee_rotation_r/value	/jointset/ankle_r/ankle_angle_r/value	/jointset/subtalar_r/subtalar_angle_r/value	/jointset/ground_pelvis/pelvis_tilt/speed	/jointset/ground_pelvis/pelvis_tx/speed	/jointset/ground_pelvis/pelvis_ty/speed	/jointset/hip_r/hip_flexion_r/speed	/jointset/hip_r/hip_adduction_r/speed	/jointset/hip_r/hip_rotation_r/speed	/jointset/back/lumbar_extension/speed	/jointset/patellofemoral_r/patellar_flexion_r/speed	/jointset/knee_r/knee_flexion_r/speed	/jointset/knee_r/knee_adduction_r/speed	/jointset/knee_r/knee_rotation_r/speed	/jointset/ankle_r/ankle_angle_r/speed	/jointset/subtalar_r/subtalar_angle_r/speed	/forceset/tau_hip_flexion_r	/forceset/tau_hip_adduction_r	/forceset/tau_hip_rotation_r	/forceset/tau_knee_flexion_r	/forceset/tau_ankle_angle_r	/forceset/tau_subtalar_angle_r	/forceset/tau_lumbar_extension	lambda_cid13_p0	lambda_cid14_p0	lambda_cid14_p1	lambda_cid14_p2	lambda_cid14_p3	lambda_cid14_p4	lambda_cid14_p5	/jointset/ground_pelvis/pelvis_tilt/accel	/jointset/ground_pelvis/pelvis_tx/accel	/jointset/ground_pelvis/pelvis_ty/accel	/jointset/hip_r/hip_flexion_r/accel	/jointset/hip_r/hip_adduction_r/accel	/jointset/hip_r/hip_rotation_r/accel	/jointset/back/lumbar_extension/accel	/jointset/patellofemoral_r/patellar_flexion_r/accel	/jointset/knee_r/knee_flexion_r/accel	/jointset/knee_r/knee_adduction_r/accel	/jointset/knee_r/knee_rotation_r/accel	/jointset/ankle_r/ankle_angle_r/accel	/jointset/subtalar_r/subtalar_angle_r/accel	gamma_cid13_p0	gamma_cid14_p0	gamma_cid14_p1	gamma_cid14_p2	gamma_cid14_p3	gamma_cid14_p4	gamma_cid14_p5
0.5	-0.1639059014092778	0.03487518067777069	0.8350489350594552	0.8490513057485187	-0.242503329142953	-0.09545761448783315	-0.3234534886626274	0.7914112646099219	0.7914112646099152	0.06195274358239195	0.174532458368293	0.2766756992345726	0.04295747178753197	-0.438270011879179	-0.1351235056709134	-0.4433023695951339	1.850759170964473	-0.02983198385679628	0.3941334611421355	-0.5995829774538458	1.935611388184769	1.935611388184774	-0.1753064702996278	6.965138725789625e-06	0.6109995290470904	0.1217378776308834	-0.1179382915212305	-0.01473508235696434	0.01389594632260538	-0.3378078719457043	0.04946493436443505	-0.007200394986974903	0.1621543141319775	-25.90732517910376	-25.6066291478465	-3.850405890614612	-3.221294128143491	5.380539030484634	-661.9006194562478	58.1790013540878	0.2172264042797728	0.3366951385393873	-0.4551556331227869	-0.9995064696058619	0.06116898423977856	-0.2732488161937531	1.437955708221985	-1.361825148881599	-1.361825148881598	0.627050987390396	-0.0266210240650773	-0.6958954731243059	-0.03398245339385288	-1.468617904877458e-07	-1.029463348961619e-07	1.397252030806342e-06	-8.018311973093953e-07	-9.10382956997283e-08	-1.874879979109572e-07	1.019903314999783e-06
0.51	-0.1682769024718787	0.03354098462612267	0.8305941747119672	0.8675059223640669	-0.242799225412284	-0.09153059611323221	-0.3293768431415974	0.8106963883125344	0.810696388312527	0.06023217557358643	0.1745325115681457	0.2827497847716097	0.04417199218243152	-0.4358681623998277	-0.1316984827400497	-0.4475476110548058	1.839907073203588	-0.02934204980514198	0.39125262806949	-0.5850103407093898	1.921138708046784	1.921138708046785	-0.1688029974008375	6.215944061342298e-06	0.6037329266720504	0.1211492029148114	-0.1245863437024183	-0.0131296936038657	0.01436869422666848	-0.3411342135824053	0.04557451379303325	-0.006194914054511874	0.1680494769700903	-24.70345586480289	-27.04495323062883	-3.767280079966663	-3.118364152723324	5.870507328834628	-666.2987900187418	58.30223843969975	0.2609601616337275	0.3479710490351504	-0.3939301493300664	-1.166635306058265	0.04367383245439545	-0.2983361128118848	1.478554302237596	-1.531157756162044	-1.531157756162716	0.6627818155761825	0.01345670261657676	-0.7547715956815604	-0.07373790751574696	-1.367603025879771e-07	-9.305696836600316e-08	1.311228695974885e-06	-7.424385860496005e-07	-9.001762549179e-08	-1.657443525666633e-07	9.533689304919486e-07
0.52	-0.1726220258513113	0.03224155183951834	0.8261000176004942	0.8858443032266597	-0.2430900686977281	-0.08763295318136503	-0.3351521439241874	0.8298285515517883	0.8298285515517768	0.05857679956866284	0.1745326089899764	0.2887486584896988	0.0453801402448103	-0.4330944752456373	-0.1281708526621748	-0.4511817223921279	1.827512020373565	-0.02882138708044286	0.3882583725963682	-0.569972238177726	1.905019295512593	1.905019295512589	-0.1622680695239354	1.580954074516882e-05	0.5959571652575012	0.1204634111266643	-0.1312343958836189	-0.01152430485077275	0.01484144213072649	-0.344460555219109	0.04168409322162957	-0.005189433122057361	0.1739446398081928	-23.49138777701141	-28.48905133946769	-3.68077331691902	-3.02099016243577	6.361185206702948	-670.7901026672064	58.48580787960574	0.2915939392476329	0.3572165679415918	-0.3329296086528398	-1.3080974834335	0.06731471884878568	-0.295933296288964	1.531048865663551	-1.691171628122837	-1.691171628122837	0.6333419830127129	-0.02455246579554329	-0.7977272810262003	-0.05340586780881034	-1.2684219599764e-07	-8.339300282784271e-08	1.229190063564609e-06	-6.829987864024017e-07	-8.895185063902081e-08	-1.462955866062644e-07	8.897767225570808e-07
0.53	-0.1769376422437026	0.0309778625090942	0.8215725984653212	0.9040512472979287	-0.2433754794786452	-0.08376576345979977	-0.3407748312272011	0.8487914999714848	0.8487914999714815	0.0569867342860997	0.1745327454098902	0.294667352775333	0.04658105481478615	-0.4299706635886436	-0.1245538265902005	-0.4541966610344104	1.813630736919489	-0.028255519243056	0.3851632170003596	-0.5545018443685366	1.887310387380306	1.887310387380309	-0.1557444652530234	1.242196174156938e-05	0.5877052727337729	0.1197040509211858	-0.1376978365747752	-0.01008761928312013	0.01529558458987952	-0.3479905495601418	0.03810845454754109	-0.004295978098759875	0.1796767302139167	-22.27422260697018	-29.83991691199273	-3.631903848194473	-2.911551597368398	6.809745059045658	-675.3123718781193	58.63849975005078	0.3314871158795898	0.3659059731897752	-0.2699866668055864	-1.465062490367283	0.05199685964250037	-0.3189311364124523	1.564541347083089	-1.849726236339242	-1.849726236338072	0.6620960777315371	0.01181001835415565	-0.8504105636535079	-0.08940909186591411	-1.174208159254501e-07	-7.526135308595317e-08	1.155138666317418e-06	-6.272555200386577e-07	-8.663271015937479e-08	-1.324669386378946e-07	8.326720801258795e-07
0.54	-0.1812202780521332	0.02975073550866269	0.8170181878087671	0.9221119947918616	-0.2436550767724926	-0.07993005018322953	-0.3462409132504162	0.8675695641437499	0.8675695641437507	0.05546195033197063	0.1745328563385102	0.3005012300706085	0.04777393418371782	-0.4264983584534732	-0.1208583866636469	-0.4565800266683064	1.798272704906507	-0.02765868966731616	0.3819630835981252	-0.5386511822178894	1.868042446025718	1.86804244602573	-0.1492118038380688	1.07112750163978e-05	0.5789937671857494	0.1188563709177648	-0.1441612772659429	-0.008650933715470472	0.01574972704901197	-0.3515205439011769	0.03453281587345159	-0.003402523075466729	0.185408820619631	-21.055481086426	-31.19725637651474	-3.579991982775643	-2.807368179682628	7.260784288560944	-679.9374831376068	58.8473097413523	0.3612926348830152	0.372899338857404	-0.2066150069755578	-1.603447195214814	0.07350706651942612	-0.3169288575340802	1.607102533955096	-2.002978272582697	-2.002978272582698	0.6351534118211837	-0.02421708733998641	-0.8896498858853072	-0.07106982739725126	-1.085490056180191e-07	-6.88250314590868e-08	1.089924210101729e-06	-5.756020351800124e-07	-8.292686728403525e-08	-1.248562935543232e-07	7.82745169741288e-07
0.55	-0.1854664759872702	0.02856090100248193	0.8124431312386008	0.9400119053657626	-0.2439284864579578	-0.07612685782525459	-0.3515467547351622	0.8861472967977154	0.8861472967977141	0.05400235402914415	0.1745328748751711	0.3062457770742641	0.0489579872242409	-0.4226861010420271	-0.1171001058077251	-0.4583234513134625	1.781473824105217	-0.02701781332378014	0.3786575484066541	-0.5224681222859593	1.847257719840897	1.847257719840897	-0.1427117629686888	-6.771736008043662e-06	0.5698459130910604	0.1179402181428967	-0.1504620245915322	-0.007344129480461879	0.01618828613104297	-0.3551419216523832	0.03112053186855243	-0.002598571457189411	0.1909804725725826	-19.8402401526796	-32.50681722176828	-3.563255801678413	-2.692242342087755	7.714461055526154	-684.5434123778861	59.01963397249818	0.3994543328228138	0.3785375925158877	-0.1420549265594799	-1.753454859417463	0.06018233048601777	-0.3401908771321482	1.631256589678653	-2.15315378852355	-2.153153788525306	0.6569171691258007	0.009440188660805432	-0.9378361748167126	-0.1038894971909705	-9.916662230826205e-08	-6.115850981075061e-08	1.020474535526213e-06	-5.187891878986703e-07	-8.006031307591604e-08	-1.144332358067641e-07	7.299240487963644e-07
0.5600000000000001	-0.189672898940584	0.02740889833157167	0.8078538706753279	0.957736757864283	-0.2441953264975423	-0.07235728582463158	-0.3566892958472163	0.9045097953904168	0.9045097953904098	0.05260765568394046	0.1745327094011053	0.3118967489362617	0.05013247843808366	-0.4185433620886822	-0.1132920196095465	-0.4594208252896044	1.763261089830669	-0.02634476049163445	0.3752390121280412	-0.5059911076793622	1.824995633772407	1.824995633772394	-0.1362322123141335	-2.609088125015427e-05	0.5602787388541298	0.1169440055816515	-0.1567627719171301	-0.00603732524545015	0.01662684521306045	-0.3587632994035915	0.02770824786365412	-0.001794619838907269	0.1965521245255259	-18.6351696769007	-33.82146412020504	-3.543487361754809	-2.582080784202449	8.16669274761902	-689.2309781850962	59.24142523032577	0.42738894326282	0.3828604073087284	-0.07740487317272293	-1.886217889866665	0.07994236424135581	-0.3395290749624651	1.665893468888542	-2.298450249316582	-2.298450249316582	0.6310553688562535	-0.02458431418349062	-0.9735139143336469	-0.08708178467267395	-8.917155139571397e-08	-5.201574813665065e-08	9.459425989189055e-07	-4.557851057100921e-07	-7.820090526846123e-08	-1.0063528286242e-07	6.736298751790426e-07
0.5700000000000001	-0.1938363036505116	0.02629518144982479	0.8032568795235506	0.9752725726689682	-0.2444552066134121	-0.06862243320083573	-0.3616657114999707	0.9226424420548031	0.9226424420548013	0.05127748284212862	0.1745322177804261	0.3174500512161403	0.05129671275683505	-0.4140850191041133	-0.1094467908923076	-0.4598677909603454	1.743673896240013	-0.02562696530483064	0.3717157540139216	-0.48925729550384	1.801299153654565	1.801299153654566	-0.129805325297104	-7.406623056200462e-05	0.5503186655531496	0.1158883945778908	-0.1628629386707893	-0.004834194262981994	0.01705026022742627	-0.3625127051548043	0.02452757483834431	-0.00109910356005877	0.2019316369507947	-17.4430315034352	-35.06533733052473	-3.565597311165931	-2.457044918503195	8.601066307639579	-693.8703442653332	59.40951788967941	0.4629356099239935	0.3860235511971816	-0.01191886426946507	-2.029172725780233	0.06833772056260519	-0.3612102932399203	1.682334197096492	-2.440412007060425	-2.440412007058279	0.6481761607650208	0.004763095349361114	-1.016733262142065	-0.1168776923080517	-7.351516568391678e-08	-3.022444141772893e-08	9.214485286926455e-07	-3.140530254750239e-07	-8.935416109896523e-08	-8.004061134308635e-08	6.449468945382457e-07
0.58	-0.1979535492038206	0.02522005074470345	0.7986587034250168	0.9926056750113222	-0.2447077808524806	-0.06492331038090111	-0.366473747209928	0.9405310908952041	0.9405310908952047	0.05001151302901543	0.1745311798543895	0.3229018569181767	0.05244997557873291	-0.4093115307647391	-0.105574784284435	-0.4596578146409064	1.722718597364751	-0.02488358513152256	0.3680930513556725	-0.4723151191198219	1.776196068975028	1.776196068975044	-0.1233916065745259	-0.0001353519536954513	0.5399794232856953	0.1147497062109174	-0.1689631054244553	-0.003631063280506278	0.01747367524179459	-0.3662621109060193	0.02134690181303625	-0.0004035872812001626	0.2073111493760564	-16.26604207798589	-36.31429685292394	-3.585280147818475	-2.336185559448686	9.033550321385315	-698.5912314925737	59.62083185731663	0.4904180142239392	0.3882159854354661	0.05398352486328192	-2.159838946787848	0.08505936154218199	-0.3594179837884694	1.707566310587738	-2.579771161655521	-2.579771161655521	0.6284217099659762	-0.02724638894769826	-1.049347707628481	-0.1036972573152463	-5.048590488472592e-08	8.039389080494618e-09	9.621200518928632e-07	-6.979145941197442e-08	-1.174541416672752e-07	-5.059439935399957e-08	6.522226768436197e-07
